<?xml version="1.0" standalone="no"?>
<!DOCTYPE svg PUBLIC "-//W3C//DTD SVG 20010904//EN"
 "http://www.w3.org/TR/2001/REC-SVG-20010904/DTD/svg10.dtd">
<svg version="1.0" xmlns="http://www.w3.org/2000/svg"
 width="1000.000000pt" height="1000.000000pt" viewBox="0 0 1000.000000 1000.000000"
 preserveAspectRatio="xMidYMid meet">
<metadata>
Created by potrace 1.14, written by Peter Selinger 2001-2017
</metadata>
<g transform="translate(0.000000,1000.000000) scale(0.100000,-0.100000)"
fill="#000000" stroke="none">
<path d="M118 6129 l-27 -27 0 -1104 0 -1104 21 -15 c11 -8 26 -19 32 -25 14
-13 2554 -13 2575 0 10 7 12 6 6 -3 -6 -10 -3 -11 13 -2 27 14 63 61 56 72 -3
5 -1 9 4 9 12 0 10 123 -3 132 -7 5 -7 8 0 8 13 0 14 408 2 428 -5 7 -4 12 3
12 19 0 -22 59 -52 73 -17 8 -56 13 -98 12 -39 -1 -73 2 -76 7 -3 5 -12 3 -21
-3 -12 -10 -16 -10 -24 2 -5 8 -9 10 -9 4 0 -12 -169 -14 -187 -2 -7 5 -19 5
-25 0 -18 -11 -250 -11 -265 0 -8 6 -13 6 -13 0 0 -11 -236 -11 -246 0 -4 4
-13 2 -21 -4 -10 -9 -17 -8 -30 2 -9 8 -14 9 -11 4 9 -14 -144 -14 -154 0 -5
6 -8 6 -8 0 0 -12 -169 -13 -188 -2 -7 5 -18 5 -25 0 -7 -5 -62 -9 -123 -8
-150 2 -177 21 -179 125 0 25 -4 51 -8 58 -5 6 -4 12 1 12 10 0 9 30 -2 48 -4
6 -3 12 1 12 10 0 10 41 -1 58 -4 7 -3 12 1 12 5 0 9 18 8 40 0 22 -4 40 -8
40 -5 0 -5 6 -1 12 10 16 10 50 0 66 -4 6 -3 12 2 12 10 0 8 42 -2 59 -4 5 -3
12 2 15 9 6 8 47 -2 64 -4 7 -3 12 1 12 5 0 9 18 8 40 0 22 -4 40 -8 40 -5 0
-5 6 -1 12 10 16 10 50 0 66 -4 6 -3 12 2 12 10 0 8 42 -2 59 -4 5 -3 12 2 15
9 6 8 47 -2 64 -4 7 -3 12 1 12 5 0 9 18 8 40 0 22 -4 40 -8 40 -5 0 -5 6 -1
12 10 16 10 50 0 66 -4 6 -3 12 2 12 10 0 8 42 -2 59 -4 5 -3 12 2 15 9 6 8
47 -2 64 -4 7 -3 12 1 12 5 0 9 18 8 40 0 22 -4 40 -9 40 -5 0 -4 6 1 13 5 6
8 23 6 37 -2 14 -4 36 -3 50 0 14 -9 39 -20 55 -11 17 -20 26 -20 20 0 -5 -5
-3 -10 5 -8 13 -67 15 -427 16 l-418 0 -27 -27z"/>
<path d="M3074 6146 c-12 -5 -30 -24 -40 -40 -17 -29 -18 -89 -18 -1083 -1
-696 2 -1053 9 -1053 6 0 6 -3 0 -8 -22 -15 5 -78 39 -94 14 -6 24 -14 21 -18
-2 -3 182 -6 410 -6 228 0 412 3 409 7 -3 5 7 11 21 15 15 4 28 15 31 30 3 13
9 24 13 24 4 0 7 34 6 75 -1 46 2 72 8 68 6 -4 7 -1 1 8 -4 8 -9 464 -9 1014
0 830 -3 1004 -14 1021 -32 49 -30 49 -461 49 -242 0 -414 -3 -426 -9z"/>
<path d="M4237 6141 c-27 -19 -47 -44 -41 -53 2 -4 1 -9 -3 -11 -6 -4 -10
-2091 -4 -2153 2 -17 45 -64 59 -64 7 0 11 -4 8 -8 -7 -11 804 -8 828 3 21 9
60 45 50 45 -4 0 -1 6 5 14 8 9 12 58 12 138 0 67 0 130 0 138 1 16 0 91 -2
155 -1 22 -1 47 0 55 0 8 0 68 0 132 0 154 18 191 94 192 23 1 46 6 50 11 6 6
10 6 14 -3 2 -6 9 -9 15 -6 15 9 288 10 288 1 0 -5 5 -5 12 -1 6 4 292 8 635
8 506 1 625 4 632 14 5 8 12 12 17 10 5 -1 16 12 26 30 13 28 16 65 15 226 -2
190 -2 193 -27 222 -14 16 -34 30 -45 32 -21 3 -581 4 -770 2 -60 -1 -114 -1
-120 0 -63 7 -336 3 -339 -5 -3 -7 -5 -7 -5 0 -1 6 -22 9 -48 8 -138 -4 -158
-5 -163 -3 -21 6 -120 3 -120 -3 0 -5 -5 -5 -12 -1 -7 4 -29 7 -49 7 -36 0
-51 8 -86 51 -8 9 -11 32 -9 57 5 46 42 88 80 90 12 1 386 3 831 4 446 2 818
5 827 6 9 1 15 6 12 11 -3 4 1 8 9 8 33 0 39 54 39 325 l-1 265 -31 33 -30 32
-1315 1 c-1158 0 -1319 -2 -1338 -15z"/>
<path d="M7184 6135 c-19 -11 -32 -24 -28 -28 4 -4 2 -7 -3 -7 -7 0 -11 -23
-10 -60 1 -33 -2 -60 -7 -60 -5 0 -3 -6 3 -13 6 -8 8 -16 5 -20 -8 -8 -12 -57
-5 -57 3 0 6 -38 6 -85 0 -47 -3 -85 -7 -85 -4 0 -4 -11 1 -23 5 -13 6 -30 1
-37 -4 -7 -5 -22 -1 -33 4 -10 4 -41 1 -68 -4 -28 -4 -52 0 -54 9 -5 6 -37 -4
-53 -4 -7 -2 -12 4 -12 7 0 8 -6 1 -17 -5 -10 -5 -26 0 -40 6 -15 5 -23 -2
-23 -7 0 -8 -5 -3 -12 11 -16 11 -39 1 -55 -5 -8 -3 -13 3 -13 7 0 8 -6 1 -17
-5 -10 -5 -26 0 -40 6 -15 5 -23 -2 -23 -7 0 -8 -5 -3 -12 11 -16 11 -39 1
-55 -5 -8 -3 -13 3 -13 7 0 8 -6 1 -17 -5 -10 -5 -26 0 -40 6 -15 5 -23 -2
-23 -7 0 -8 -5 -3 -12 11 -16 11 -39 1 -55 -5 -8 -3 -13 3 -13 7 0 8 -6 2 -17
-5 -10 -6 -27 -2 -38 4 -11 3 -28 -2 -37 -5 -11 -5 -18 0 -18 5 0 7 -12 5 -27
-2 -16 -4 -39 -3 -53 5 -106 4 -170 -2 -170 -4 0 -4 -11 1 -23 5 -13 6 -30 1
-37 -5 -7 -4 -23 0 -36 5 -12 7 -24 4 -26 -2 -3 -4 -31 -4 -64 0 -32 0 -68 0
-79 -1 -40 0 -60 4 -80 2 -11 -1 -28 -6 -37 -6 -12 -5 -18 2 -18 6 0 8 -5 5
-11 -9 -14 -14 -59 -6 -59 10 0 7 -165 -4 -172 -7 -5 -7 -8 0 -8 6 0 11 -11
11 -25 2 -26 15 -43 54 -67 22 -14 163 -15 1325 -14 1269 1 1301 1 1332 20 21
13 35 31 39 50 4 17 8 144 8 281 2 268 -1 290 -48 321 -21 13 -67 15 -313 15
-158 0 -292 -1 -298 -2 -5 -1 -14 0 -20 1 -32 7 -56 6 -61 -2 -3 -4 -10 -6
-15 -2 -17 10 -59 12 -65 2 -3 -4 -10 -6 -15 -2 -17 10 -59 12 -65 2 -3 -4
-10 -6 -15 -2 -12 7 -699 8 -706 0 -3 -3 -13 -2 -22 2 -20 9 -42 9 -58 -1 -6
-4 -18 0 -27 8 -8 9 -17 15 -18 13 -2 -1 -13 4 -25 13 -16 11 -25 30 -29 61
-6 40 -3 47 24 74 17 17 36 31 44 32 7 1 384 3 838 6 454 2 834 7 845 11 45
14 50 38 51 256 1 199 1 208 -21 235 -12 15 -32 28 -46 30 -13 1 -24 3 -24 4
0 7 -106 3 -109 -5 -3 -7 -5 -7 -5 0 -1 9 -341 12 -596 5 -38 -1 -74 -1 -80 0
-13 2 -64 2 -155 0 -41 -1 -77 -1 -80 0 -22 6 -120 3 -120 -3 0 -5 -5 -5 -11
-1 -17 10 -129 10 -129 -1 0 -7 -3 -7 -8 0 -8 11 -312 14 -312 3 0 -11 -52 11
-79 32 -16 14 -25 33 -27 65 -4 39 -1 49 26 77 l31 32 837 0 c779 1 840 2 864
18 15 10 31 32 35 50 7 25 9 429 4 540 -1 9 -13 30 -27 45 l-26 28 -1314 1
-1315 0 -35 -21z"/>
</g>
</svg>
